{
  "accessors": [
    {
      "bufferView": 2,
      "componentType": 5126,
      "count": 358,
      "max": [
        3.1380116939544678,
        25.166561126708984,
        35.230716705322266
      ],
      "min": [
        -2.774798631668091,
        -3.881999969482422,
        -5.118858337402344
      ],
      "type": "VEC3"
    },
    {
      "bufferView": 2,
      "byteOffset": 4296,
      "componentType": 5126,
      "count": 358,
      "max": [
        0.9996439814567566,
        0.9795123338699341,
        0.9647844433784485
      ],
      "min": [
        -0.9994626045227051,
        -0.9825935363769531,
        -0.9968425631523132
      ],
      "type": "VEC3"
    },
    {
      "bufferView": 3,
      "componentType": 5126,
      "count": 358,
      "max": [
        0.9999701380729675,
        0.9528687596321106,
        0.9317740797996521,
        1.0
      ],
      "min": [
        -0.9999339580535889,
        -0.9536666870117188,
        -0.6751325726509094,
        -1.0
      ],
      "type": "VEC4"
    },
    {
      "bufferView": 1,
      "componentType": 5126,
      "count": 358,
      "max": [
        0.9969491362571716,
        0.9966809153556824
      ],
      "min": [
        0.011189192533493042,
        0.006119847297668457
      ],
      "type": "VEC2"
    },
    {
      "bufferView": 0,
      "componentType": 5125,
      "count": 1788,
      "type": "SCALAR"
    },
    {
      "bufferView": 2,
      "byteOffset": 8592,
      "componentType": 5126,
      "count": 358,
      "max": [
        3.1380116939544678,
        25.166561126708984,
        35.230716705322266
      ],
      "min": [
        -2.774798631668091,
        -3.881999969482422,
        -5.118858337402344
      ],
      "type": "VEC3"
    },
    {
      "bufferView": 2,
      "byteOffset": 12888,
      "componentType": 5126,
      "count": 358,
      "max": [
        0.9996439814567566,
        0.9795123338699341,
        0.9647844433784485
      ],
      "min": [
        -0.9994626045227051,
        -0.9825935363769531,
        -0.9968425631523132
      ],
      "type": "VEC3"
    },
    {
      "bufferView": 3,
      "byteOffset": 5728,
      "componentType": 5126,
      "count": 358,
      "max": [
        0.9999701380729675,
        0.9528687596321106,
        0.9317740797996521,
        1.0
      ],
      "min": [
        -0.9999339580535889,
        -0.9536666870117188,
        -0.6751325726509094,
        -1.0
      ],
      "type": "VEC4"
    },
    {
      "bufferView": 1,
      "byteOffset": 2864,
      "componentType": 5126,
      "count": 358,
      "max": [
        0.9969491362571716,
        0.9966809153556824
      ],
      "min": [
        0.011189192533493042,
        0.006119847297668457
      ],
      "type": "VEC2"
    },
    {
      "bufferView": 0,
      "byteOffset": 7152,
      "componentType": 5125,
      "count": 1788,
      "type": "SCALAR"
    },
    {
      "bufferView": 2,
      "byteOffset": 17184,
      "componentType": 5126,
      "count": 663,
      "max": [
        5.951065540313721,
        37.644805908203125,
        54.02015686035156
      ],
      "min": [
        -1.0714330673217773,
        -0.8138542175292969,
        -0.6259384155273438
      ],
      "type": "VEC3"
    },
    {
      "bufferView": 2,
      "byteOffset": 25140,
      "componentType": 5126,
      "count": 663,
      "max": [
        0.9754691123962402,
        0.9995324611663818,
        0.9977230429649353
      ],
      "min": [
        -0.998794436454773,
        -0.9986276030540466,
        -0.9913951754570007
      ],
      "type": "VEC3"
    },
    {
      "bufferView": 3,
      "byteOffset": 11456,
      "componentType": 5126,
      "count": 663,
      "max": [
        0.9999956488609314,
        0.9997919797897339,
        0.9790346622467041,
        1.0
      ],
      "min": [
        -0.9999729990959167,
        -0.9988159537315369,
        -0.9893065690994263,
        1.0
      ],
      "type": "VEC4"
    },
    {
      "bufferView": 1,
      "byteOffset": 5728,
      "componentType": 5126,
      "count": 663,
      "max": [
        0.7966622710227966,
        0.9971562623977661
      ],
      "min": [
        0.011155635118484497,
        0.01080179214477539
      ],
      "type": "VEC2"
    },
    {
      "bufferView": 0,
      "byteOffset": 14304,
      "componentType": 5125,
      "count": 2829,
      "type": "SCALAR"
    }
  ],
  "asset": {
    "extras": {
      "author": "IDALGAME (https://sketchfab.com/IDALGAME)",
      "license": "CC-BY-4.0 (http://creativecommons.org/licenses/by/4.0/)",
      "source": "https://sketchfab.com/3d-models/torch-homemade-burning-5e478d2d48d04ca7ae7426430192698f",
      "title": "Torch homemade Burning"
    },
    "generator": "Sketchfab-15.47.0",
    "version": "2.0"
  },
  "bufferViews": [
    {
      "buffer": 0,
      "byteLength": 25620,
      "name": "floatBufferViews",
      "target": 34963
    },
    {
      "buffer": 0,
      "byteLength": 11032,
      "byteOffset": 25620,
      "byteStride": 8,
      "name": "floatBufferViews",
      "target": 34962
    },
    {
      "buffer": 0,
      "byteLength": 33096,
      "byteOffset": 36652,
      "byteStride": 12,
      "name": "floatBufferViews",
      "target": 34962
    },
    {
      "buffer": 0,
      "byteLength": 22064,
      "byteOffset": 69748,
      "byteStride": 16,
      "name": "floatBufferViews",
      "target": 34962
    }
  ],
  "buffers": [
    {
      "byteLength": 91812,
      "uri": "scene.bin"
    }
  ],
  "extensionsUsed": [
    "KHR_materials_specular"
  ],
  "images": [
    {
      "uri": "textures/Material.001_baseColor.jpeg"
    },
    {
      "uri": "textures/Material.001_metallicRoughness.png"
    },
    {
      "uri": "textures/Material.001_emissive.png"
    },
    {
      "uri": "textures/Material.001_normal.png"
    }
  ],
  "materials": [
    {
      "doubleSided": true,
      "emissiveFactor": [
        1.0,
        1.0,
        1.0
      ],
      "emissiveTexture": {
        "index": 2
      },
      "extensions": {
        "KHR_materials_specular": {
          "specularColorFactor": [
            1.0,
            1.0,
            1.0
          ],
          "specularFactor": 0.1653030396
        }
      },
      "name": "Material.001",
      "normalTexture": {
        "index": 3
      },
      "occlusionTexture": {
        "index": 1
      },
      "pbrMetallicRoughness": {
        "baseColorTexture": {
          "index": 0
        },
        "metallicRoughnessTexture": {
          "index": 1
        }
      }
    },
    {
      "doubleSided": true,
      "extensions": {
        "KHR_materials_specular": {
          "specularColorFactor": [
            1.0,
            1.0,
            1.0
          ],
          "specularFactor": 0.1592424335
        }
      },
      "name": "torch2",
      "normalTexture": {
        "index": 3
      },
      "occlusionTexture": {
        "index": 1
      },
      "pbrMetallicRoughness": {
        "baseColorTexture": {
          "index": 0
        },
        "metallicRoughnessTexture": {
          "index": 1
        }
      }
    }
  ],
  "meshes": [
    {
      "name": "torch.001_Material.001_0",
      "primitives": [
        {
          "attributes": {
            "NORMAL": 1,
            "POSITION": 0,
            "TANGENT": 2,
            "TEXCOORD_0": 3
          },
          "indices": 4,
          "material": 0,
          "mode": 4
        }
      ]
    },
    {
      "name": "torch_torch2_0",
      "primitives": [
        {
          "attributes": {
            "NORMAL": 6,
            "POSITION": 5,
            "TANGENT": 7,
            "TEXCOORD_0": 8
          },
          "indices": 9,
          "material": 1,
          "mode": 4
        }
      ]
    },
    {
      "name": "Stand_torch2_0",
      "primitives": [
        {
          "attributes": {
            "NORMAL": 11,
            "POSITION": 10,
            "TANGENT": 12,
            "TEXCOORD_0": 13
          },
          "indices": 14,
          "material": 1,
          "mode": 4
        }
      ]
    }
  ],
  "nodes": [
    {
      "children": [
        1
      ],
      "matrix": [
        1.0,
        0.0,
        0.0,
        0.0,
        0.0,
        2.220446049250313e-16,
        -1.0,
        0.0,
        0.0,
        1.0,
        2.220446049250313e-16,
        0.0,
        0.0,
        0.0,
        0.0,
        1.0
      ],
      "name": "Sketchfab_model"
    },
    {
      "children": [
        2
      ],
      "matrix": [
        1.0,
        0.0,
        0.0,
        0.0,
        0.0,
        0.0,
        1.0,
        0.0,
        0.0,
        -1.0,
        0.0,
        0.0,
        0.0,
        0.0,
        0.0,
        1.0
      ],
      "name": "torch2.fbx"
    },
    {
      "children": [
        3,
        5,
        7
      ],
      "name": "RootNode"
    },
    {
      "children": [
        4
      ],
      "matrix": [
        1.7691900730133057,
        -2.237455342128775e-16,
        -6.994511937622992e-17,
        0.0,
        6.994517186843494e-17,
        1.007660228719639,
        -1.4541854151108566,
        0.0,
        2.237455509021788e-16,
        1.4541854151108566,
        1.007660228719639,
        0.0,
        5.240098476409912,
        100.54620361328125,
        -43.393646240234375,
        1.0
      ],
      "name": "torch.001"
    },
    {
      "mesh": 0,
      "name": "torch.001_Material.001_0"
    },
    {
      "children": [
        6
      ],
      "matrix": [
        1.7691900730133057,
        -2.237455342128775e-16,
        -6.994511937622992e-17,
        0.0,
        6.994517186843494e-17,
        1.007660228719639,
        -1.4541854151108566,
        0.0,
        2.237455509021788e-16,
        1.4541854151108566,
        1.007660228719639,
        0.0,
        5.240098476409912,
        100.54620361328125,
        0.04992783069610596,
        1.0
      ],
      "name": "torch"
    },
    {
      "mesh": 1,
      "name": "torch_torch2_0"
    },
    {
      "children": [
        8
      ],
      "matrix": [
        1.7691900730133057,
        -2.237455342128775e-16,
        -6.994511937622992e-17,
        0.0,
        6.994517186843494e-17,
        1.007660228719639,
        -1.4541854151108566,
        0.0,
        2.237455509021788e-16,
        1.4541854151108566,
        1.007660228719639,
        0.0,
        0.0,
        0.0,
        0.0,
        1.0
      ],
      "name": "Stand"
    },
    {
      "mesh": 2,
      "name": "Stand_torch2_0"
    }
  ],
  "samplers": [
    {
      "magFilter": 9729,
      "minFilter": 9987,
      "wrapS": 10497,
      "wrapT": 10497
    }
  ],
  "scene": 0,
  "scenes": [
    {
      "name": "Sketchfab_Scene",
      "nodes": [
        0
      ]
    }
  ],
  "textures": [
    {
      "sampler": 0,
      "source": 0
    },
    {
      "sampler": 0,
      "source": 1
    },
    {
      "sampler": 0,
      "source": 2
    },
    {
      "sampler": 0,
      "source": 3
    }
  ]
}
